<svg width="131" height="22" viewBox="0 0 131 22" fill="none" xmlns="http://www.w3.org/2000/svg">
<path d="M130.862 1.00002V16.8077H129.367V1.00002H130.862Z" fill="#0A2F4A"/>
<path d="M114.268 10.9546C114.268 9.75838 114.503 8.71165 114.973 7.81446C115.458 6.90302 116.12 6.20521 116.96 5.72101C117.814 5.22257 118.776 4.97335 119.844 4.97335C120.955 4.97335 121.909 5.22969 122.706 5.74237C123.518 6.25505 124.102 6.91015 124.458 7.70765V5.14424H125.953V16.8078H124.458V14.223C124.088 15.0205 123.497 15.6827 122.685 16.2096C121.887 16.7223 120.933 16.9787 119.822 16.9787C118.769 16.9787 117.814 16.7294 116.96 16.231C116.12 15.7325 115.458 15.0276 114.973 14.1162C114.503 13.2047 114.268 12.1509 114.268 10.9546ZM124.458 10.976C124.458 10.0361 124.266 9.21009 123.881 8.49804C123.497 7.78598 122.97 7.23769 122.3 6.85318C121.645 6.46867 120.919 6.27641 120.122 6.27641C119.296 6.27641 118.555 6.46155 117.9 6.83182C117.245 7.20209 116.725 7.74325 116.341 8.45531C115.97 9.15313 115.785 9.98624 115.785 10.9546C115.785 11.9088 115.97 12.749 116.341 13.4753C116.725 14.1874 117.245 14.7357 117.9 15.1202C118.555 15.4904 119.296 15.6756 120.122 15.6756C120.919 15.6756 121.645 15.4833 122.3 15.0988C122.97 14.7143 123.497 14.166 123.881 13.454C124.266 12.7419 124.458 11.9159 124.458 10.976Z" fill="#0A2F4A"/>
<path d="M108.708 7.21632C109.035 6.49002 109.534 5.92749 110.203 5.52874C110.887 5.12999 111.72 4.93061 112.702 4.93061V6.49002H112.297C111.214 6.49002 110.346 6.78196 109.69 7.36585C109.035 7.94974 108.708 8.92526 108.708 10.2924V16.8077H107.213V5.14423H108.708V7.21632Z" fill="#0A2F4A"/>
<path d="M101.542 6.40454V13.6462C101.542 14.3582 101.677 14.8496 101.948 15.1201C102.219 15.3907 102.696 15.526 103.379 15.526H104.746V16.8077H103.144C102.09 16.8077 101.307 16.5656 100.794 16.0814C100.282 15.583 100.025 14.7712 100.025 13.6462V6.40454H98.402V5.1442H100.025V2.21764H101.542V5.1442H104.746V6.40454H101.542Z" fill="#0A2F4A"/>
<path d="M91.5488 4.93061C92.9444 4.93061 94.0837 5.36497 94.9667 6.23368C95.8496 7.08815 96.2911 8.33425 96.2911 9.97198V16.8077H94.8172V10.1429C94.8172 8.87541 94.4967 7.90701 93.8559 7.23768C93.2293 6.56834 92.3677 6.23368 91.2711 6.23368C90.1461 6.23368 89.2489 6.58971 88.5795 7.30177C87.9102 8.01382 87.5755 9.06055 87.5755 10.4419V16.8077H86.0802V5.14423H87.5755V7.13087C87.9458 6.41881 88.4798 5.87765 89.1777 5.50738C89.8755 5.12287 90.6659 4.93061 91.5488 4.93061Z" fill="#0A2F4A"/>
<path d="M83.3444 10.3779C83.3444 10.8906 83.3302 11.2822 83.3017 11.5528H73.6248C73.6676 12.4357 73.8812 13.1905 74.2657 13.8171C74.6502 14.4437 75.1558 14.9208 75.7824 15.2483C76.409 15.5617 77.0926 15.7183 77.8331 15.7183C78.8015 15.7183 79.6132 15.4833 80.2683 15.0134C80.9377 14.5434 81.3792 13.9097 81.5928 13.1122H83.1735C82.8887 14.2515 82.2764 15.1843 81.3364 15.9106C80.4108 16.6226 79.243 16.9787 77.8331 16.9787C76.7365 16.9787 75.7539 16.7366 74.8852 16.2524C74.0165 15.7539 73.3329 15.0561 72.8345 14.1589C72.3503 13.2475 72.1082 12.1865 72.1082 10.976C72.1082 9.7655 72.3503 8.70453 72.8345 7.7931C73.3187 6.88166 73.9951 6.18385 74.8638 5.69965C75.7325 5.21545 76.7223 4.97335 77.8331 4.97335C78.9439 4.97335 79.9123 5.21545 80.7383 5.69965C81.5785 6.18385 82.2194 6.83894 82.6609 7.66493C83.1166 8.47667 83.3444 9.38099 83.3444 10.3779ZM81.8278 10.3351C81.842 9.46643 81.664 8.72589 81.2937 8.11352C80.9377 7.50115 80.4464 7.03832 79.8197 6.72501C79.1931 6.4117 78.5096 6.25505 77.769 6.25505C76.6582 6.25505 75.7112 6.61108 74.9279 7.32314C74.1446 8.0352 73.7103 9.0392 73.6248 10.3351H81.8278Z" fill="#0A2F4A"/>
<path d="M59.0073 10.976C59.0073 9.7655 59.2494 8.71165 59.7336 7.81446C60.2178 6.90302 60.8872 6.20521 61.7416 5.72101C62.5961 5.22257 63.5716 4.97335 64.6682 4.97335C66.1065 4.97335 67.2886 5.32938 68.2142 6.04143C69.1542 6.75349 69.7594 7.72189 70.03 8.94663H68.4279C68.2285 8.1064 67.7941 7.45131 67.1248 6.98135C66.4697 6.49715 65.6508 6.25505 64.6682 6.25505C63.8849 6.25505 63.18 6.43307 62.5534 6.7891C61.9268 7.14512 61.4283 7.67917 61.0581 8.39123C60.702 9.08904 60.524 9.95063 60.524 10.976C60.524 12.0014 60.702 12.8701 61.0581 13.5821C61.4283 14.2942 61.9268 14.8282 62.5534 15.1843C63.18 15.5403 63.8849 15.7183 64.6682 15.7183C65.6508 15.7183 66.4697 15.4833 67.1248 15.0134C67.7941 14.5292 68.2285 13.8598 68.4279 13.0054H70.03C69.7594 14.2016 69.1542 15.1629 68.2142 15.8892C67.2743 16.6155 66.0923 16.9787 64.6682 16.9787C63.5716 16.9787 62.5961 16.7366 61.7416 16.2524C60.8872 15.7539 60.2178 15.0561 59.7336 14.1589C59.2494 13.2475 59.0073 12.1865 59.0073 10.976Z" fill="#0A2F4A"/>
<path d="M42.6287 10.8906C42.6287 9.66581 42.8779 8.59772 43.3763 7.68629C43.8748 6.76061 44.5655 6.04855 45.4484 5.55011C46.3314 5.03743 47.3425 4.78109 48.4818 4.78109C49.9486 4.78109 51.1591 5.15136 52.1133 5.8919C53.0817 6.6182 53.7297 7.64356 54.0572 8.96799H50.8316C50.6607 8.45531 50.3687 8.05656 49.9557 7.77174C49.557 7.47267 49.0585 7.32314 48.4604 7.32314C47.606 7.32314 46.9295 7.63644 46.4311 8.26306C45.9326 8.87543 45.6834 9.75126 45.6834 10.8906C45.6834 12.0156 45.9326 12.8914 46.4311 13.518C46.9295 14.1304 47.606 14.4366 48.4604 14.4366C49.6709 14.4366 50.4613 13.8954 50.8316 12.8131H54.0572C53.7297 14.0948 53.0817 15.1131 52.1133 15.8678C51.1449 16.6226 49.9344 17 48.4818 17C47.3425 17 46.3314 16.7508 45.4484 16.2524C44.5655 15.7397 43.8748 15.0276 43.3763 14.1162C42.8779 13.1905 42.6287 12.1153 42.6287 10.8906Z" fill="#0A2F4A"/>
<path d="M40.4429 4.97334V16.8078H37.4523V4.97334H40.4429Z" fill="#0A2F4A"/>
<path d="M30.3404 17C29.372 17 28.5033 16.8291 27.7343 16.4873C26.9653 16.1313 26.3529 15.6542 25.8972 15.0561C25.4557 14.458 25.2136 13.7957 25.1709 13.0694H28.1829C28.2399 13.5252 28.4606 13.9026 28.8451 14.2016C29.2439 14.5007 29.7352 14.6502 30.3191 14.6502C30.8887 14.6502 31.3302 14.5363 31.6435 14.3084C31.9711 14.0806 32.1348 13.7886 32.1348 13.4326C32.1348 13.0481 31.9355 12.7633 31.5367 12.5781C31.1522 12.3788 30.5327 12.1651 29.6782 11.9373C28.7953 11.7237 28.069 11.5029 27.4993 11.2751C26.9439 11.0472 26.4597 10.6983 26.0467 10.2283C25.648 9.75838 25.4486 9.12465 25.4486 8.32714C25.4486 7.67205 25.6337 7.07392 26.004 6.53275C26.3885 5.99159 26.9297 5.56435 27.6275 5.25105C28.3396 4.93774 29.1727 4.78109 30.1268 4.78109C31.5367 4.78109 32.6618 5.13712 33.502 5.84918C34.3422 6.54699 34.805 7.49403 34.8905 8.69029H32.028C31.9853 8.22033 31.7859 7.85006 31.4299 7.57948C31.0881 7.29466 30.6253 7.15224 30.0414 7.15224C29.5002 7.15224 29.0801 7.25193 28.781 7.45131C28.4962 7.65068 28.3538 7.92839 28.3538 8.28442C28.3538 8.68317 28.5532 8.98935 28.9519 9.20297C29.3507 9.40235 29.9702 9.60885 30.8104 9.82246C31.6649 10.0361 32.3698 10.2568 32.9252 10.4847C33.4806 10.7125 33.9577 11.0686 34.3565 11.5528C34.7694 12.0227 34.9831 12.6493 34.9973 13.4326C34.9973 14.1162 34.805 14.7285 34.4205 15.2697C34.0503 15.8109 33.5091 16.2381 32.797 16.5514C32.0992 16.8505 31.2804 17 30.3404 17Z" fill="#0A2F4A"/>
<path d="M5.06616 1.41212C6.50573 -1.08178 10.3181 -0.0602536 10.3181 2.81935V8.24904H12.3513C14.5177 8.24904 15.8727 10.5944 14.7898 12.4707L10.1042 20.5879C8.6647 23.0819 4.85229 22.0603 4.85229 19.1807V13.751H2.81812C0.65175 13.7509 -0.702357 11.4056 0.380615 9.52931L5.06616 1.41212Z" fill="#7A6DFF"/>
</svg>
