<svg width="518" height="87" viewBox="0 0 518 87" fill="none" xmlns="http://www.w3.org/2000/svg">
<path d="M517.503 3.95491V66.466H511.589V3.95491H517.503Z" fill="black"/>
<path d="M451.882 43.3202C451.882 38.5896 452.811 34.4504 454.669 30.9024C456.584 27.2982 459.203 24.5387 462.526 22.6239C465.905 20.6529 469.706 19.6673 473.93 19.6673C478.323 19.6673 482.096 20.681 485.25 22.7084C488.46 24.7358 490.769 27.3264 492.177 30.4801V20.3431H498.09V66.4662H492.177V56.2448C490.712 59.3985 488.375 62.0172 485.165 64.1009C482.011 66.1283 478.238 67.142 473.845 67.142C469.678 67.142 465.905 66.1565 462.526 64.1854C459.203 62.2143 456.584 59.4267 454.669 55.8224C452.811 52.2182 451.882 48.0508 451.882 43.3202ZM492.177 43.4047C492.177 39.6878 491.416 36.4214 489.896 33.6056C488.375 30.7898 486.291 28.6216 483.645 27.1011C481.054 25.5806 478.182 24.8203 475.028 24.8203C471.762 24.8203 468.833 25.5524 466.243 27.0166C463.652 28.4808 461.596 30.6209 460.076 33.4367C458.612 36.1962 457.879 39.4907 457.879 43.3202C457.879 47.0934 458.612 50.4161 460.076 53.2882C461.596 56.104 463.652 58.2722 466.243 59.7927C468.833 61.2569 471.762 61.9891 475.028 61.9891C478.182 61.9891 481.054 61.2288 483.645 59.7082C486.291 58.1877 488.375 56.0195 489.896 53.2037C491.416 50.3879 492.177 47.1215 492.177 43.4047Z" fill="black"/>
<path d="M429.892 28.5371C431.187 25.665 433.158 23.4405 435.805 21.8636C438.509 20.2868 441.803 19.4984 445.689 19.4984V25.665H444.084C439.804 25.665 436.369 26.8195 433.778 29.1284C431.187 31.4374 429.892 35.2951 429.892 40.7015V66.4662H423.979V20.3431H429.892V28.5371Z" fill="black"/>
<path d="M401.555 25.327V53.9638C401.555 56.7796 402.09 58.7225 403.16 59.7926C404.23 60.8626 406.117 61.3976 408.82 61.3976H414.226V66.466H407.891C403.723 66.466 400.626 65.5087 398.598 63.5939C396.571 61.6228 395.557 58.4128 395.557 53.9638V25.327H389.137V20.343H395.557V8.76997H401.555V20.343H414.226V25.327H401.555Z" fill="black"/>
<path d="M362.036 19.4984C367.555 19.4984 372.06 21.216 375.552 24.6513C379.044 28.0303 380.79 32.958 380.79 39.4343V66.4662H374.961V40.1101C374.961 35.098 373.694 31.2685 371.159 28.6216C368.681 25.9747 365.274 24.6513 360.938 24.6513C356.489 24.6513 352.941 26.0592 350.294 28.875C347.647 31.6908 346.323 35.8301 346.323 41.2928V66.4662H340.41V20.3431H346.323V28.1992C347.788 25.3834 349.9 23.2434 352.659 21.7792C355.419 20.2586 358.544 19.4984 362.036 19.4984Z" fill="black"/>
<path d="M329.591 41.0394C329.591 43.0668 329.535 44.6155 329.422 45.6855H291.155C291.324 49.1771 292.168 52.1619 293.689 54.6398C295.21 57.1177 297.209 59.0043 299.687 60.2996C302.165 61.5385 304.868 62.158 307.797 62.158C311.626 62.158 314.836 61.2288 317.427 59.3703C320.074 57.5119 321.82 55.0058 322.664 51.8521H328.916C327.789 56.3574 325.368 60.0461 321.651 62.9183C317.99 65.7341 313.372 67.142 307.797 67.142C303.46 67.142 299.574 66.1846 296.139 64.2699C292.703 62.2988 290 59.5393 288.029 55.9914C286.114 52.3871 285.157 48.1916 285.157 43.4047C285.157 38.6178 286.114 34.4222 288.029 30.818C289.944 27.2137 292.619 24.4542 296.054 22.5395C299.49 20.6247 303.404 19.6673 307.797 19.6673C312.189 19.6673 316.019 20.6247 319.285 22.5395C322.608 24.4542 325.142 27.0448 326.888 30.3111C328.69 33.5212 329.591 37.0972 329.591 41.0394ZM323.594 40.8704C323.65 37.4351 322.946 34.5067 321.482 32.0851C320.074 29.6635 318.131 27.8332 315.653 26.5942C313.175 25.3553 310.472 24.7358 307.543 24.7358C303.15 24.7358 299.405 26.1437 296.308 28.9595C293.21 31.7753 291.493 35.7456 291.155 40.8704H323.594Z" fill="black"/>
<path d="M233.349 43.4047C233.349 38.6178 234.307 34.4504 236.221 30.9024C238.136 27.2982 240.783 24.5387 244.162 22.6239C247.541 20.6529 251.399 19.6673 255.735 19.6673C261.423 19.6673 266.098 21.0752 269.758 23.8911C273.475 26.7069 275.869 30.5364 276.939 35.3796H270.603C269.815 32.0569 268.097 29.4664 265.45 27.6079C262.86 25.6932 259.621 24.7358 255.735 24.7358C252.638 24.7358 249.85 25.4398 247.372 26.8477C244.894 28.2556 242.923 30.3674 241.459 33.1833C240.051 35.9428 239.347 39.3499 239.347 43.4047C239.347 47.4594 240.051 50.8947 241.459 53.7106C242.923 56.5264 244.894 58.6382 247.372 60.0461C249.85 61.454 252.638 62.158 255.735 62.158C259.621 62.158 262.86 61.2288 265.45 59.3703C268.097 57.4556 269.815 54.8087 270.603 51.4297H276.939C275.869 56.1603 273.475 59.9617 269.758 62.8338C266.041 65.7059 261.367 67.142 255.735 67.142C251.399 67.142 247.541 66.1846 244.162 64.2699C240.783 62.2988 238.136 59.5393 236.221 55.9914C234.307 52.3871 233.349 48.1916 233.349 43.4047Z" fill="black"/>
<path d="M168.579 43.0668C168.579 38.2236 169.565 33.9998 171.536 30.3956C173.507 26.735 176.238 23.9192 179.73 21.9482C183.222 19.9208 187.22 18.9071 191.726 18.9071C197.526 18.9071 202.313 20.3713 206.086 23.2997C209.916 26.1719 212.478 30.2267 213.774 35.4641H201.018C200.342 33.4367 199.188 31.8598 197.554 30.7335C195.977 29.5509 194.006 28.9595 191.641 28.9595C188.262 28.9595 185.587 30.1985 183.616 32.6764C181.645 35.098 180.659 38.5615 180.659 43.0668C180.659 47.5158 181.645 50.9792 183.616 53.4571C185.587 55.8787 188.262 57.0895 191.641 57.0895C196.428 57.0895 199.554 54.9495 201.018 50.6695H213.774C212.478 55.7379 209.916 59.7646 206.086 62.7493C202.257 65.7341 197.47 67.2265 191.726 67.2265C187.22 67.2265 183.222 66.2409 179.73 64.2699C176.238 62.2425 173.507 59.4267 171.536 55.8224C169.565 52.1619 168.579 47.91 168.579 43.0668Z" fill="black"/>
<path d="M159.935 19.6673V66.4662H148.109V19.6673H159.935Z" fill="black"/>
<path d="M119.985 67.2265C116.155 67.2265 112.72 66.5507 109.679 65.1991C106.637 63.7912 104.216 61.9046 102.414 59.5393C100.668 57.174 99.7105 54.5553 99.5415 51.6832H111.453C111.678 53.4853 112.551 54.9777 114.071 56.1603C115.648 57.343 117.591 57.9343 119.9 57.9343C122.153 57.9343 123.899 57.4838 125.138 56.5827C126.433 55.6816 127.081 54.5271 127.081 53.1192C127.081 51.5987 126.292 50.4724 124.715 49.7403C123.195 48.9518 120.745 48.1071 117.366 47.206C113.874 46.3613 111.002 45.4884 108.749 44.5873C106.553 43.6863 104.638 42.3065 103.005 40.4481C101.428 38.5896 100.64 36.0836 100.64 32.9298C100.64 30.3393 101.372 27.974 102.836 25.834C104.357 23.694 106.497 22.0045 109.256 20.7655C112.072 19.5266 115.367 18.9071 119.14 18.9071C124.715 18.9071 129.164 20.315 132.487 23.1308C135.81 25.8903 137.64 29.6353 137.978 34.3659H126.658C126.489 32.5075 125.701 31.0432 124.293 29.9732C122.941 28.8469 121.111 28.2837 118.802 28.2837C116.662 28.2837 115.001 28.678 113.818 29.4664C112.692 30.2548 112.128 31.353 112.128 32.7609C112.128 34.3377 112.917 35.5485 114.494 36.3933C116.071 37.1817 118.52 37.9983 121.843 38.843C125.222 39.6878 128.01 40.5607 130.206 41.4618C132.403 42.3628 134.289 43.7707 135.866 45.6855C137.499 47.5439 138.344 50.0218 138.4 53.1192C138.4 55.8224 137.64 58.244 136.12 60.384C134.655 62.5241 132.515 64.2136 129.699 65.4525C126.94 66.6352 123.702 67.2265 119.985 67.2265Z" fill="black"/>
<path d="M20.0354 5.58474C25.7281 -4.2777 40.8049 -0.239215 40.8049 11.1482V32.6218H48.8479C57.4151 32.6219 62.7703 41.8955 58.4875 49.3152L39.9592 81.4138C34.2665 91.2763 19.1897 87.2378 19.1897 75.8504V54.3767H11.1467C2.57952 54.3767 -2.7757 45.1031 1.50708 37.6834L20.0354 5.58474Z" fill="#7A6DFF"/>
</svg>
