<svg width="106" height="16" viewBox="0 0 106 16" fill="none" xmlns="http://www.w3.org/2000/svg">
<path d="M105.862 1.52588e-05V15.8077H104.367V1.52588e-05H105.862Z" fill="#0A2F4A"/>
<path d="M89.2684 9.95464C89.2684 8.75838 89.5034 7.71165 89.9734 6.81446C90.4576 5.90302 91.1198 5.20521 91.96 4.72101C92.8145 4.22257 93.7758 3.97335 94.8439 3.97335C95.9547 3.97335 96.9088 4.22969 97.7063 4.74237C98.5181 5.25505 99.102 5.91015 99.458 6.70765V4.14424H100.953V15.8078H99.458V13.223C99.0877 14.0205 98.4967 14.6827 97.685 15.2096C96.8875 15.7223 95.9333 15.9787 94.8225 15.9787C93.7686 15.9787 92.8145 15.7294 91.96 15.231C91.1198 14.7325 90.4576 14.0276 89.9734 13.1162C89.5034 12.2047 89.2684 11.1509 89.2684 9.95464ZM99.458 9.976C99.458 9.03608 99.2657 8.21009 98.8812 7.49804C98.4967 6.78598 97.9698 6.23769 97.3005 5.85318C96.6454 5.46867 95.9191 5.27641 95.1216 5.27641C94.2956 5.27641 93.555 5.46155 92.8999 5.83182C92.2448 6.20209 91.725 6.74325 91.3405 7.45531C90.9703 8.15313 90.7851 8.98624 90.7851 9.95464C90.7851 10.9088 90.9703 11.749 91.3405 12.4753C91.725 13.1874 92.2448 13.7357 92.8999 14.1202C93.555 14.4904 94.2956 14.6756 95.1216 14.6756C95.9191 14.6756 96.6454 14.4833 97.3005 14.0988C97.9698 13.7143 98.4967 13.166 98.8812 12.454C99.2657 11.7419 99.458 10.9159 99.458 9.976Z" fill="#0A2F4A"/>
<path d="M83.7078 6.21632C84.0354 5.49002 84.5338 4.92749 85.2032 4.52874C85.8867 4.12999 86.7199 3.93061 87.7025 3.93061V5.49002H87.2966C86.2143 5.49002 85.3456 5.78196 84.6905 6.36585C84.0354 6.94974 83.7078 7.92526 83.7078 9.29241V15.8077H82.2125V4.14423H83.7078V6.21632Z" fill="#0A2F4A"/>
<path d="M76.5422 5.40454V12.6462C76.5422 13.3582 76.6774 13.8496 76.948 14.1201C77.2186 14.3907 77.6957 14.526 78.3793 14.526H79.7464V15.8077H78.1443C77.0904 15.8077 76.3072 15.5656 75.7945 15.0814C75.2818 14.583 75.0255 13.7712 75.0255 12.6462V5.40454H73.402V4.1442H75.0255V1.21764H76.5422V4.1442H79.7464V5.40454H76.5422Z" fill="#0A2F4A"/>
<path d="M66.5488 3.93061C67.9444 3.93061 69.0837 4.36497 69.9667 5.23368C70.8496 6.08815 71.2911 7.33425 71.2911 8.97198V15.8077H69.8172V9.14288C69.8172 7.87541 69.4967 6.90701 68.8559 6.23768C68.2293 5.56834 67.3677 5.23368 66.2711 5.23368C65.1461 5.23368 64.2489 5.58971 63.5795 6.30177C62.9102 7.01382 62.5755 8.06055 62.5755 9.44194V15.8077H61.0802V4.14423H62.5755V6.13087C62.9458 5.41881 63.4798 4.87765 64.1777 4.50738C64.8755 4.12287 65.6659 3.93061 66.5488 3.93061Z" fill="#0A2F4A"/>
<path d="M58.3444 9.37787C58.3444 9.89055 58.3302 10.2822 58.3017 10.5528H48.6248C48.6676 11.4357 48.8812 12.1905 49.2657 12.8171C49.6502 13.4437 50.1558 13.9208 50.7824 14.2483C51.409 14.5617 52.0926 14.7183 52.8331 14.7183C53.8015 14.7183 54.6132 14.4833 55.2683 14.0134C55.9377 13.5434 56.3792 12.9097 56.5928 12.1122H58.1735C57.8887 13.2515 57.2764 14.1843 56.3364 14.9106C55.4108 15.6226 54.243 15.9787 52.8331 15.9787C51.7365 15.9787 50.7539 15.7366 49.8852 15.2524C49.0165 14.7539 48.3329 14.0561 47.8345 13.1589C47.3503 12.2475 47.1082 11.1865 47.1082 9.976C47.1082 8.7655 47.3503 7.70453 47.8345 6.7931C48.3187 5.88166 48.9951 5.18385 49.8638 4.69965C50.7325 4.21545 51.7223 3.97335 52.8331 3.97335C53.9439 3.97335 54.9123 4.21545 55.7383 4.69965C56.5785 5.18385 57.2194 5.83894 57.6609 6.66493C58.1166 7.47667 58.3444 8.38099 58.3444 9.37787ZM56.8278 9.33515C56.842 8.46643 56.664 7.72589 56.2937 7.11352C55.9377 6.50115 55.4464 6.03832 54.8197 5.72501C54.1931 5.4117 53.5096 5.25505 52.769 5.25505C51.6582 5.25505 50.7112 5.61108 49.9279 6.32314C49.1446 7.0352 48.7103 8.0392 48.6248 9.33515H56.8278Z" fill="#0A2F4A"/>
<path d="M34.0073 9.976C34.0073 8.7655 34.2494 7.71165 34.7336 6.81446C35.2178 5.90302 35.8872 5.20521 36.7416 4.72101C37.5961 4.22257 38.5716 3.97335 39.6682 3.97335C41.1065 3.97335 42.2886 4.32938 43.2142 5.04143C44.1542 5.75349 44.7594 6.72189 45.03 7.94663H43.4279C43.2285 7.1064 42.7941 6.45131 42.1248 5.98135C41.4697 5.49715 40.6508 5.25505 39.6682 5.25505C38.8849 5.25505 38.18 5.43307 37.5534 5.7891C36.9268 6.14512 36.4283 6.67917 36.0581 7.39123C35.702 8.08904 35.524 8.95063 35.524 9.976C35.524 11.0014 35.702 11.8701 36.0581 12.5821C36.4283 13.2942 36.9268 13.8282 37.5534 14.1843C38.18 14.5403 38.8849 14.7183 39.6682 14.7183C40.6508 14.7183 41.4697 14.4833 42.1248 14.0134C42.7941 13.5292 43.2285 12.8598 43.4279 12.0054H45.03C44.7594 13.2016 44.1542 14.1629 43.2142 14.8892C42.2743 15.6155 41.0923 15.9787 39.6682 15.9787C38.5716 15.9787 37.5961 15.7366 36.7416 15.2524C35.8872 14.7539 35.2178 14.0561 34.7336 13.1589C34.2494 12.2475 34.0073 11.1865 34.0073 9.976Z" fill="#0A2F4A"/>
<path d="M17.6287 9.89055C17.6287 8.66581 17.8779 7.59772 18.3763 6.68629C18.8748 5.76061 19.5655 5.04855 20.4484 4.55011C21.3314 4.03743 22.3425 3.78109 23.4818 3.78109C24.9486 3.78109 26.1591 4.15136 27.1133 4.8919C28.0817 5.6182 28.7297 6.64356 29.0572 7.96799H25.8316C25.6607 7.45531 25.3687 7.05656 24.9557 6.77174C24.557 6.47267 24.0585 6.32314 23.4604 6.32314C22.606 6.32314 21.9295 6.63644 21.4311 7.26306C20.9326 7.87543 20.6834 8.75126 20.6834 9.89055C20.6834 11.0156 20.9326 11.8914 21.4311 12.518C21.9295 13.1304 22.606 13.4366 23.4604 13.4366C24.6709 13.4366 25.4613 12.8954 25.8316 11.8131H29.0572C28.7297 13.0948 28.0817 14.1131 27.1133 14.8678C26.1449 15.6226 24.9344 16 23.4818 16C22.3425 16 21.3314 15.7508 20.4484 15.2524C19.5655 14.7397 18.8748 14.0276 18.3763 13.1162C17.8779 12.1905 17.6287 11.1153 17.6287 9.89055Z" fill="#0A2F4A"/>
<path d="M15.4429 3.97334V15.8078H12.4523V3.97334H15.4429Z" fill="#0A2F4A"/>
<path d="M5.34044 16C4.37204 16 3.50333 15.8291 2.73431 15.4873C1.96529 15.1313 1.35292 14.6542 0.897198 14.0561C0.455722 13.458 0.213622 12.7957 0.170898 12.0694H3.18291C3.23987 12.5252 3.46061 12.9026 3.84512 13.2016C4.24387 13.5007 4.73519 13.6502 5.31908 13.6502C5.88873 13.6502 6.3302 13.5363 6.64351 13.3084C6.97106 13.0806 7.13483 12.7886 7.13483 12.4326C7.13483 12.0481 6.93545 11.7633 6.5367 11.5781C6.15219 11.3788 5.5327 11.1651 4.67823 10.9373C3.79528 10.7237 3.06898 10.5029 2.49933 10.2751C1.94392 10.0472 1.45972 9.6983 1.04673 9.22834C0.647978 8.75838 0.448601 8.12465 0.448601 7.32714C0.448601 6.67205 0.633736 6.07392 1.00401 5.53275C1.38852 4.99159 1.92968 4.56435 2.6275 4.25105C3.33956 3.93774 4.17267 3.78109 5.12683 3.78109C6.5367 3.78109 7.66175 4.13712 8.50198 4.84918C9.34221 5.54699 9.80505 6.49403 9.8905 7.69029H7.02802C6.9853 7.22033 6.78592 6.85006 6.42989 6.57948C6.0881 6.29466 5.62527 6.15224 5.04138 6.15224C4.50021 6.15224 4.0801 6.25193 3.78103 6.45131C3.49621 6.65068 3.3538 6.92839 3.3538 7.28442C3.3538 7.68317 3.55318 7.98935 3.95193 8.20297C4.35068 8.40235 4.97017 8.60885 5.8104 8.82246C6.66487 9.03608 7.36981 9.25682 7.92521 9.48468C8.48062 9.71254 8.9577 10.0686 9.35645 10.5528C9.76945 11.0227 9.98306 11.6493 9.9973 12.4326C9.9973 13.1162 9.80505 13.7285 9.42054 14.2697C9.05027 14.8109 8.5091 15.2381 7.79704 15.5514C7.09923 15.8505 6.28036 16 5.34044 16Z" fill="#0A2F4A"/>
</svg>
